<svg xmlns="http://www.w3.org/2000/svg" xmlns:xlink="http://www.w3.org/1999/xlink" version="1.1" x="0px" y="0px" viewBox="0 0 90 90" style="enable-background:new 0 0 90 90;" xml:space="preserve">
	<path fill="#5B9BD1" d="M82,22.8v36.8c0,1.6-1.3,2.8-2.8,2.8H67.2V44.8c0-11.4-9.3-20.7-20.8-20.7v-1.2c0-9.8,7.9-17.8,17.8-17.8  C74,5.1,82,13,82,22.8z"></path>
	<path fill="#5B9BD1" d="M25.8,44.8v28.5H10.8c-1.6,0-2.8-1.3-2.8-2.8V33.8C8,24,15.9,16,25.8,16c6.5,0,12.2,3.5,15.3,8.8  C32.2,27.2,25.8,35.3,25.8,44.8z"></path>
	<path fill="#5B9BD1" d="M46.5,27.1c-9.8,0-17.8,7.9-17.8,17.7v36.8c0,1.6,1.3,2.8,2.8,2.8h29.8c1.6,0,2.8-1.3,2.8-2.8V44.8  C64.3,35,56.3,27.1,46.5,27.1z M56.6,46c0,0.8-0.6,1.4-1.4,1.4h-6v13.5c0,0.8-0.6,1.4-1.4,1.4h-2.5c-0.8,0-1.4-0.6-1.4-1.4V47.5h-6  c-0.8,0-1.4-0.6-1.4-1.4v-2.5c0-0.8,0.6-1.4,1.4-1.4h6v-6c0-0.8,0.6-1.4,1.4-1.4h2.5c0.8,0,1.4,0.6,1.4,1.4v6h6  c0.8,0,1.4,0.6,1.4,1.4V46z"></path>
</svg>